<svg width="128" height="128" viewBox="0 0 128 128" fill="none" xmlns="http://www.w3.org/2000/svg">
<path fill-rule="evenodd" clip-rule="evenodd" d="M80.981 95.0629C83.536 96.9382 86.4227 98.15 89.7165 98.15C109.223 98.15 123.675 85.1501 127.366 65.4941C131.737 42.2377 112.909 21 89.2451 21H38.7546C15.091 21 -3.73799 42.2377 0.634001 65.4941C4.32431 85.1501 18.7769 98.15 38.2832 98.15C41.5776 98.15 44.4647 96.9384 47.0196 95.0635C49.2804 96.289 51.2824 98.291 53.2844 100.293C56.4991 103.508 59.7136 106.722 63.9997 106.722C68.2858 106.722 71.5005 103.508 74.7151 100.293C76.7173 98.2907 78.7197 96.2883 80.981 95.0629Z" fill="#FE5454"/>
<path fill-rule="evenodd" clip-rule="evenodd" d="M90.3322 89.4798C85.8704 89.4798 81.2755 82.3477 77.9196 77.1358C76.9509 75.6356 76.0466 74.2382 75.1979 73.0468C72.7634 69.6179 68.8074 67.5733 64.6155 67.5733C60.4194 67.5733 56.4675 69.6179 54.033 73.0381C53.1802 74.2426 52.2758 75.6356 51.3113 77.1399L51.2982 77.1602C47.9435 82.3661 43.3591 89.4798 38.8987 89.4798C23.8459 89.4798 12.6463 79.6431 9.67176 63.8144C8.10734 55.4951 10.3019 47.2271 15.8523 40.5365C21.6857 33.5073 30.2579 29.4741 39.3704 29.4741H89.8606C98.973 29.4741 107.545 33.5073 113.374 40.5365C118.925 47.2271 121.124 55.4951 119.555 63.8144C116.585 79.6474 105.385 89.4798 90.3322 89.4798Z" fill="#F8F8F8"/>
<path fill-rule="evenodd" clip-rule="evenodd" d="M51.2594 56.2176C50.3713 58.1846 48.3928 59.5535 46.0944 59.5535C42.9663 59.5535 40.4303 57.0174 40.4303 53.8893C40.4303 51.5909 41.7991 49.6122 43.7661 48.7242C42.7116 48.3997 41.5912 48.2251 40.4303 48.2251C34.1737 48.2251 29.1019 53.297 29.1019 59.5535C29.1019 65.8098 34.1737 70.8816 40.4303 70.8816C46.6868 70.8816 51.7586 65.8098 51.7586 59.5535C51.7586 58.3923 51.5838 57.2721 51.2594 56.2176Z" fill="#FE5454"/>
<path fill-rule="evenodd" clip-rule="evenodd" d="M99.6474 56.2186C98.7594 58.1853 96.7807 59.5545 94.4825 59.5545C91.3541 59.5545 88.8183 57.0184 88.8183 53.8903C88.8183 51.5919 90.1872 49.6132 92.1542 48.7251C91.0994 48.4006 89.9792 48.2261 88.8183 48.2261C82.5618 48.2261 77.4899 53.2979 77.4899 59.5545C77.4899 65.8107 82.5618 70.8826 88.8183 70.8826C95.0746 70.8826 100.146 65.8107 100.146 59.5545C100.146 58.3933 99.9719 57.2731 99.6474 56.2186Z" fill="#FE5454"/>
</svg>
